<svg xmlns="http://www.w3.org/2000/svg" viewBox="0 0 1200 578">
<defs><linearGradient id="bg" x1="0" y1="0" x2="1" y2="1"><stop stop-color="#f2eee5"/><stop offset="1" stop-color="#d2c1ac"/></linearGradient><linearGradient id="wall" x1="0" y1="0" x2="0" y2="1"><stop stop-color="#d8c8b5"/><stop offset="1" stop-color="#b68768"/></linearGradient></defs>
<rect width="1200" height="578" fill="url(#bg)"/><rect x="600" width="600" height="578" fill="url(#wall)"/><circle cx="944" cy="145" r="124" fill="#ead9bd" opacity=".75"/><rect x="870" y="76" width="110" height="137" fill="#e7d4b9" stroke="#94715c" stroke-width="12"/>
<ellipse cx="663" cy="473" rx="308" ry="55" fill="#d0b99c"/><rect x="665" y="290" width="350" height="116" rx="30" fill="#ad705c"/><rect x="680" y="309" width="152" height="76" rx="18" fill="#bd8570"/><rect x="846" y="309" width="152" height="76" rx="18" fill="#bd8570"/><rect x="677" y="399" width="16" height="80" fill="#5c493d"/><rect x="987" y="399" width="16" height="80" fill="#5c493d"/>
<ellipse cx="935" cy="414" rx="88" ry="31" fill="#99704f"/><rect x="927" y="416" width="16" height="78" fill="#594236"/><path d="M130 480c12-114 45-183 93-226 13 75 6 158-18 226z" fill="#5e6a54"/><path d="M200 477c41-112 88-174 139-207-7 101-47 169-105 207z" fill="#4e5f4d"/><path d="M146 478h130l-12 58H157z" fill="#b16f51"/>
<text x="70" y="80" fill="#a7654f" font-family="Arial,sans-serif" font-size="17" font-weight="700" letter-spacing="4">NORD FORM</text><text x="70" y="145" fill="#1b201c" font-family="Georgia,serif" font-size="58">Дом начинается</text><text x="70" y="207" fill="#a7654f" font-family="Georgia,serif" font-size="58" font-style="italic">с атмосферы.</text><rect x="70" y="253" width="145" height="43" fill="#1b201c"/><text x="91" y="280" fill="#f3efe7" font-family="Arial,sans-serif" font-size="13" font-weight="700">Смотреть коллекцию</text>
</svg>
